HIERARCHY
ROOT Hips
{
	OFFSET 0.000000 0.000000 0.000000
	CHANNELS 6 Xposition Yposition Zposition Xrotation Yrotation Zrotation
	JOINT LeftUpLeg_virtual
	{
		OFFSET 0.000000 0.000000 0.000000
		CHANNELS 3 Xrotation Yrotation Zrotation
		JOINT LeftUpLeg
		{
			OFFSET 13.026900 -6.336304 -1.092800
			CHANNELS 3 Xrotation Yrotation Zrotation
			JOINT LeftLeg
			{
				OFFSET 0.524474 -46.096886 9.782700
				CHANNELS 3 Xrotation Yrotation Zrotation
				JOINT LeftFoot
				{
					OFFSET -0.524474 -53.427422 -12.948200
					CHANNELS 3 Xrotation Yrotation Zrotation
					JOINT LeftToeBase
					{
						OFFSET 0.192200 -14.009700 16.364100
						CHANNELS 3 Xrotation Yrotation Zrotation
						JOINT LeftToe_End
						{
							OFFSET -1.784700 -0.561700 9.474800
							CHANNELS 3 Xrotation Yrotation Zrotation
							End Site
							{
								OFFSET 0 0 0
							}
						}
					}
				}
			}
		}
	}
	JOINT RightUpLeg_virtual
	{
		OFFSET 0.000000 0.000000 0.000000
		CHANNELS 3 Xrotation Yrotation Zrotation
		JOINT RightUpLeg
		{
			OFFSET -12.883000 -6.336304 -1.092800
			CHANNELS 3 Xrotation Yrotation Zrotation
			JOINT RightLeg
			{
				OFFSET -0.524587 -46.096825 9.782800
				CHANNELS 3 Xrotation Yrotation Zrotation
				JOINT RightFoot
				{
					OFFSET 0.524587 -53.427383 -12.948300
					CHANNELS 3 Xrotation Yrotation Zrotation
					JOINT RightToeBase
					{
						OFFSET -0.192200 -14.009700 16.364100
						CHANNELS 3 Xrotation Yrotation Zrotation
						JOINT RightToe_End
						{
							OFFSET 1.784700 -0.561700 9.474800
							CHANNELS 3 Xrotation Yrotation Zrotation
							End Site
							{
								OFFSET 0 0 0
							}
						}
					}
				}
			}
		}
	}
	JOINT Spine_virtual
	{
		OFFSET 0.000000 0.000000 0.000000
		CHANNELS 3 Xrotation Yrotation Zrotation
		JOINT Spine
		{
			OFFSET 0.072000 7.257294 -0.789700
			CHANNELS 3 Xrotation Yrotation Zrotation
			JOINT Spine1
			{
				OFFSET 0.000000 12.508769 -0.658067
				CHANNELS 3 Xrotation Yrotation Zrotation
				JOINT Spine1_split
				{
					OFFSET 0.000000 12.508769 -0.658067
					CHANNELS 3 Xrotation Yrotation Zrotation
					JOINT Spine2
					{
						OFFSET 0.000000 12.508769 -0.658067
						CHANNELS 3 Xrotation Yrotation Zrotation
						JOINT Neck_virtual
						{
							OFFSET 0.000000 0.000000 0.000000
							CHANNELS 3 Xrotation Yrotation Zrotation
							JOINT Neck
							{
								OFFSET 0.000000 14.033295 7.520400
								CHANNELS 3 Xrotation Yrotation Zrotation
								JOINT Head
								{
									OFFSET 0.000000 8.198502 5.703100
									CHANNELS 3 Xrotation Yrotation Zrotation
									JOINT HeadTop_End
									{
										OFFSET 0.000000 17.760803 13.332701
										CHANNELS 3 Xrotation Yrotation Zrotation
										End Site
										{
											OFFSET 0 0 0
										}
									}
								}
							}
						}
						JOINT LeftShoulder_virtual
						{
							OFFSET 0.000000 0.000000 0.000000
							CHANNELS 3 Xrotation Yrotation Zrotation
							JOINT LeftShoulder
							{
								OFFSET 6.292450 5.785301 -0.669000
								CHANNELS 3 Xrotation Yrotation Zrotation
								JOINT LeftShoulder_split
								{
									OFFSET 6.292450 5.785301 -0.669000
									CHANNELS 3 Xrotation Yrotation Zrotation
									JOINT LeftArm
									{
										OFFSET 13.907140 -6.093903 1.965100
										CHANNELS 3 Xrotation Yrotation Zrotation
										JOINT LeftForeArm
										{
											OFFSET 34.140198 0.000000 0.000000
											CHANNELS 3 Xrotation Yrotation Zrotation
											JOINT LeftHand
											{
												OFFSET 40.960209 0.000000 0.000000
												CHANNELS 3 Xrotation Yrotation Zrotation
												End Site
												{
													OFFSET 0 0 0
												}
											}
										}
									}
								}
							}
						}
						JOINT RightShoulder_virtual
						{
							OFFSET 0.000000 0.000000 0.000000
							CHANNELS 3 Xrotation Yrotation Zrotation
							JOINT RightShoulder
							{
								OFFSET -6.292450 5.785301 -0.669000
								CHANNELS 3 Xrotation Yrotation Zrotation
								JOINT RightShoulder_split
								{
									OFFSET -6.292450 5.785301 -0.669000
									CHANNELS 3 Xrotation Yrotation Zrotation
									JOINT RightArm
									{
										OFFSET -13.907140 -6.093903 1.965100
										CHANNELS 3 Xrotation Yrotation Zrotation
										JOINT RightForeArm
										{
											OFFSET -34.140198 0.000000 0.000000
											CHANNELS 3 Xrotation Yrotation Zrotation
											JOINT RightHand
											{
												OFFSET -40.960209 0.000000 0.000000
												CHANNELS 3 Xrotation Yrotation Zrotation
												End Site
												{
													OFFSET 0 0 0
												}
											}
										}
									}
								}
							}
						}
					}
				}
			}
		}
	}
}
MOTION
Frames: 8
Frame Time: 0.03333333
-2.026948 48.576828 100.561172 0.000000 0.000000 0.000000 16.917248 -26.479303 -9.735560 -12.614106 8.023529 5.428692 93.714102 -3.861653 -3.308819 28.339017 -7.652066 -20.796512 0.097885 -0.766415 -2.117982 0.000000 0.000000 0.000000 17.999676 -18.955800 -11.282944 0.683464 12.822767 -8.780558 64.787070 9.400250 -8.542091 37.978686 5.082471 20.269302 9.341794 -1.680827 -6.677865 0.000000 0.000000 0.000000 17.250549 -24.737108 -10.631149 7.025518 2.194715 4.624454 -3.225452 2.755688 1.720478 0.083262 -2.872786 1.379890 0.000000 0.000000 0.000000 -4.844765 2.758509 2.164404 -59.801947 -1.562613 18.796513 17.489198 15.852464 -16.343236 0.000000 0.000000 0.000000 -5.043581 2.834846 1.778408 -19.376470 0.903510 -15.696861 -4.253893 3.527688 -3.476178 11.926458 6.604276 -49.554057 72.207346 -31.687344 38.347100 0.000000 0.000000 0.000000 -5.088640 2.847320 1.862304 -18.356880 0.252750 22.557676 -8.754769 0.016921 -0.423716 4.559093 -9.079522 49.951427 7.178759 33.129566 9.292737 0.000000 0.000000 0.000000 
-1.585577 48.047470 104.482422 0.000000 0.000000 0.000000 18.479271 -27.973041 -9.849678 -7.996602 7.869900 4.106288 88.857312 -1.725873 -6.244414 25.930168 -5.063104 -19.973524 0.201610 -0.872760 -2.384513 0.000000 0.000000 0.000000 19.511892 -18.847040 -11.663029 0.884649 12.251569 -8.863211 65.390537 9.511933 -8.593005 36.977022 5.582422 19.528470 9.824514 -1.768103 -5.239437 0.000000 0.000000 0.000000 18.314847 -25.162854 -11.007880 6.901250 1.737267 5.153849 -3.495873 2.537125 2.032997 0.451893 -2.407913 1.194383 0.000000 0.000000 0.000000 -4.961458 2.614156 2.369469 -61.559136 -2.256989 19.775401 18.584526 16.701433 -16.939632 0.000000 0.000000 0.000000 -5.195658 2.630120 2.079680 -19.382117 1.186131 -15.589932 -3.752142 3.364224 -3.740904 13.047944 10.267867 -46.721407 75.320779 -33.735062 39.220200 0.000000 0.000000 0.000000 -5.276399 2.707032 2.104045 -18.328348 -1.022173 22.145792 -7.704865 -0.216626 0.263673 4.332951 -5.956026 52.573213 -1.827117 37.693222 13.749409 0.000000 0.000000 0.000000 
-1.221222 47.169636 108.213013 0.000000 0.000000 0.000000 20.269510 -28.768279 -9.679138 -4.027710 6.448086 2.686253 85.544534 -0.702210 -7.811529 25.024013 -3.521536 -21.458554 -1.709299 -1.056306 -1.836462 0.000000 0.000000 0.000000 21.518202 -18.383794 -11.862760 1.010906 11.010192 -8.829637 65.072660 9.535071 -8.226855 37.173373 6.294884 18.904367 9.628922 -1.856405 -3.600105 0.000000 0.000000 0.000000 19.779666 -25.006159 -11.044711 6.670638 1.210300 5.358578 -3.602021 2.264656 2.454124 0.723896 -1.860044 0.948846 0.000000 0.000000 0.000000 -4.817409 2.416475 2.702095 -63.540055 -2.848662 20.143184 19.383968 16.927702 -17.411619 0.000000 0.000000 0.000000 -5.210829 2.414868 2.497908 -19.432950 0.991794 -14.981373 -2.732014 2.966765 -4.004483 14.811083 11.522872 -43.610314 74.921964 -37.734162 38.375076 0.000000 0.000000 0.000000 -5.164425 2.525524 2.475909 -18.419559 -2.037617 21.702479 -6.448511 -0.909671 0.865908 4.629197 -2.879257 55.596323 -7.689181 44.024760 15.834306 0.000000 0.000000 0.000000 
-0.970287 45.929058 111.765335 0.000000 0.000000 0.000000 22.475595 -28.548321 -9.163269 -1.309991 3.838914 1.129610 83.532790 -0.745819 -7.880622 25.358583 -3.005018 -24.056941 -3.019299 -1.316932 -0.948166 0.000000 0.000000 0.000000 24.011812 -17.882709 -11.846380 1.279716 9.553439 -8.676972 63.637542 9.524920 -7.625127 38.267624 7.075265 18.510542 8.534614 -1.958115 -2.025477 0.000000 0.000000 0.000000 21.930202 -24.363683 -10.792822 6.339763 0.731445 5.204789 -3.560533 2.012782 2.922533 0.820472 -1.350734 0.898666 0.000000 0.000000 0.000000 -4.527646 2.231139 3.114702 -65.643083 -3.229145 19.923571 19.857658 16.433456 -17.698625 0.000000 0.000000 0.000000 -5.118165 2.257035 2.948736 -19.523324 0.376265 -13.972100 -1.904752 2.628876 -4.242528 16.658473 10.940599 -40.552568 70.524565 -42.389622 35.031699 0.000000 0.000000 0.000000 -4.820245 2.372045 2.886038 -18.686392 -2.616371 21.382271 -5.363555 -1.684923 1.206349 5.441511 -0.426482 57.583665 -9.313174 50.893351 14.683486 0.000000 0.000000 0.000000 
-0.885085 44.562023 114.947021 0.000000 0.000000 0.000000 25.297477 -27.383007 -8.451121 0.442763 0.158120 -0.720971 80.932066 -0.709038 -6.817594 25.142690 -2.664113 -26.303356 -2.536740 -1.477349 -0.295699 0.000000 0.000000 0.000000 27.015594 -17.448972 -11.542791 1.974684 8.297832 -8.346344 61.296413 9.371778 -6.902552 39.509041 7.507239 18.266071 6.835538 -2.076368 -0.731865 0.000000 0.000000 0.000000 24.815798 -23.262250 -10.474729 5.951398 0.388805 4.791783 -3.446562 1.840079 3.361647 0.846102 -0.895110 1.056954 0.000000 0.000000 0.000000 -4.213215 2.094356 3.479823 -67.772777 -3.376249 19.217031 20.143802 15.363442 -17.875621 0.000000 0.000000 0.000000 -4.956720 2.223921 3.314347 -19.610527 -0.414713 -12.726528 -1.629717 2.131001 -4.622973 18.730349 9.304171 -37.968024 62.867315 -46.611253 29.546063 0.000000 0.000000 0.000000 -4.379945 2.291522 3.234505 -19.073337 -2.829990 21.239621 -4.359575 -2.145856 1.057378 6.636771 1.146086 57.919615 -5.620614 57.408396 9.309818 0.000000 0.000000 0.000000 
-0.829157 43.136349 118.209839 0.000000 0.000000 0.000000 28.796245 -25.210607 -7.902000 2.059550 -4.226791 -3.019034 76.654653 -0.159998 -4.733036 23.352203 -1.804246 -28.225513 -0.471231 -1.459333 -0.241752 0.000000 0.000000 0.000000 30.457203 -17.008950 -11.116226 3.139568 7.682764 -7.874505 58.294435 9.165024 -6.220456 40.257893 7.548466 18.282231 5.070119 -2.177974 0.162203 0.000000 0.000000 0.000000 28.492283 -21.991010 -10.096054 5.535674 0.257687 4.215308 -3.316015 1.780527 3.678779 0.758897 -0.519636 1.231554 0.000000 0.000000 0.000000 -3.993245 2.046907 3.713810 -69.819389 -3.195033 18.229333 20.405308 13.945158 -18.096429 0.000000 0.000000 0.000000 -4.777592 2.322922 3.493505 -19.664427 -1.051562 -11.324901 -2.201123 1.724582 -5.046604 21.281930 7.220228 -36.168464 54.445665 -49.864377 23.833351 0.000000 0.000000 0.000000 -3.949183 2.309757 3.434849 -19.479447 -2.835254 21.161938 -3.956202 -2.048696 0.800693 8.559068 1.853177 56.631568 3.772770 62.359409 -0.687568 0.000000 0.000000 0.000000 
-0.887468 41.525997 121.670486 0.000000 0.000000 0.000000 32.881340 -22.261198 -7.720549 4.002597 -8.659553 -5.323642 70.501643 0.679513 -1.925096 20.521158 -0.986552 -30.063296 0.816313 -1.275205 -0.485153 0.000000 0.000000 0.000000 34.206124 -16.201940 -10.899151 4.905208 7.704429 -7.317177 55.180982 9.018098 -5.741994 40.277400 7.291088 18.606735 3.604690 -2.199326 0.649359 0.000000 0.000000 0.000000 32.870132 -20.425717 -9.770004 5.104120 0.372658 3.649425 -3.244351 1.820511 3.852000 0.680265 -0.366578 1.437668 0.000000 0.000000 0.000000 -3.950146 2.078632 3.803499 -71.769654 -2.800774 17.215473 20.693619 12.495122 -18.490628 0.000000 0.000000 0.000000 -4.676858 2.520898 3.505010 -19.681503 -1.377254 -9.860820 -3.195421 1.224835 -5.709531 24.124156 5.000909 -35.095728 48.028613 -52.693257 20.140187 0.000000 0.000000 0.000000 -3.675573 2.401845 3.474227 -19.804750 -2.815613 21.005762 -4.053273 -1.520424 0.665344 11.363651 1.737680 54.129625 16.948932 65.332494 -13.435032 0.000000 0.000000 0.000000 
-0.986862 39.433098 125.250916 0.000000 0.000000 0.000000 37.142033 -19.266775 -7.990880 5.869821 -12.526571 -6.982665 64.214099 1.476376 1.187614 17.908082 -0.693177 -31.856993 0.091477 -0.974597 -0.878023 0.000000 0.000000 0.000000 38.295433 -15.097257 -10.921639 7.041793 8.120338 -6.877670 52.380639 9.020656 -5.479598 39.823435 6.964565 19.447459 2.228102 -2.115976 0.783444 0.000000 0.000000 0.000000 37.639222 -18.851503 -9.451102 4.692674 0.665766 3.157163 -3.270750 1.880846 3.908752 0.499922 -0.473546 1.521290 0.000000 0.000000 0.000000 -4.056473 2.121637 3.767622 -73.545810 -2.317053 16.469222 21.055354 11.406259 -19.180558 0.000000 0.000000 0.000000 -4.696848 2.731188 3.407133 -19.661907 -1.274224 -8.383465 -4.445655 0.870732 -6.472670 27.300647 2.991525 -34.532163 45.516428 -55.930182 19.964873 0.000000 0.000000 0.000000 -3.588914 2.493087 3.409775 -19.936965 -3.002324 20.505700 -4.453556 -1.030164 0.959558 14.968370 0.830354 51.268674 31.089635 66.854554 -26.207974 0.000000 0.000000 0.000000 
